<?xml version="1.0" standalone="no"?>
<!DOCTYPE svg PUBLIC "-//W3C//DTD SVG 20010904//EN"
 "http://www.w3.org/TR/2001/REC-SVG-20010904/DTD/svg10.dtd">
<svg version="1.0" xmlns="http://www.w3.org/2000/svg"
 width="182.000000pt" height="226.000000pt" viewBox="0 0 182.000000 226.000000"
 preserveAspectRatio="xMidYMid meet">

<g transform="translate(0.000000,226.000000) scale(0.100000,-0.100000)"
fill="#000000" stroke="none">
<path d="M912 1749 c-383 -47 -639 -392 -502 -676 44 -91 62 -110 38 -38 -50
148 31 312 214 437 153 103 310 140 436 103 59 -18 62 -27 32 -94 -31 -66 -70
-113 -251 -291 -140 -139 -172 -176 -199 -231 -67 -140 -30 -215 125 -253 206
-51 417 -1 568 134 72 65 100 110 36 58 -124 -100 -315 -136 -427 -79 -51 26
-100 77 -107 113 -10 45 27 93 219 283 178 177 233 250 243 324 7 54 -1 83
-34 115 -73 74 -239 113 -391 95z"/>
</g>
</svg>
